<?xml version="1.0" encoding="iso-8859-1"?>
<!-- Generator: Adobe Illustrator 19.0.0, SVG Export Plug-In . SVG Version: 6.00 Build 0)  -->
<svg version="1.1" id="Capa_1" xmlns="http://www.w3.org/2000/svg" xmlns:xlink="http://www.w3.org/1999/xlink" x="0px" y="0px"
	 viewBox="0 0 512.001 512.001" style="enable-background:new 0 0 512.001 512.001;" xml:space="preserve">
<path style="fill:#616161;" d="M492.811,273.55c-18.121-18.121-42.703-28.302-68.324-28.302h-59.924l-28.042,22.001l-28.042-22.001
	h-81.575c-8.321,0.02-16.251,1.74-23.451,4.83l-4.83-4.83l-56.564,56.574l-70.874,21.591l40.173,144.529
	c5.8,21.441,25.242,36.322,47.453,36.322v7h305.269v-152.31l28.762-28.832c7.79-7.81,11.691-18.041,11.691-28.272
	C504.532,291.612,500.621,281.371,492.811,273.55z"/>
<path style="fill:#424242;" d="M492.841,330.124l-28.762,28.832v28.322l-75.705,75.875c-15.121,15.151-35.232,23.491-56.634,23.491
	h-0.01c-21.371,0-41.463-8.321-56.574-23.431l-154.78-154.78l21.677-6.611l56.568-56.573l4.83,4.83
	c7.2-3.09,15.131-4.81,23.451-4.83l104.667,104.657l101.489-79.898c17.939-14.123,43.606-12.601,59.751,3.543l0,0
	C508.422,289.171,508.442,314.483,492.841,330.124z"/>
<polygon style="fill:#FFC477;" points="364.563,209.246 308.559,209.246 308.559,245.309 336.521,267.25 364.563,245.249 "/>
<path style="fill:#FFFFFF;" d="M415.526,245.249v48.983l-69.814,69.814c-7.81,7.81-20.481,7.81-28.292,0l-59.904-59.904v-58.894
	h50.963l0.08,0.06l27.962,21.941l28.042-22.001H415.526z"/>
<g>
	<polygon style="fill:#D8D7DA;" points="411.696,245.249 374.873,322.234 336.521,292.542 298.169,322.234 261.346,245.249 
		308.479,245.249 308.559,245.309 336.521,267.25 364.563,245.249 	"/>
	<path style="fill:#D8D7DA;" d="M415.526,283.811v10.421l-69.814,69.814c-7.81,7.81-20.481,7.81-28.292,0l-59.904-59.904v-28.282
		l74.055,74.045L415.526,283.811z"/>
</g>
<g>
	<rect x="321.02" y="312.25" style="fill:#EA427A;" width="30.002" height="70.004"/>
	<rect x="321.02" y="267.247" style="fill:#EA427A;" width="30.002" height="45.003"/>
</g>
<rect x="321.02" y="312.25" style="fill:#ED1653;" width="30.002" height="20.001"/>
<g>
	<polygon style="fill:#FFFFFF;" points="336.521,267.25 305.519,291.252 283.518,245.249 308.479,245.249 308.559,245.309 	"/>
	<polygon style="fill:#FFFFFF;" points="389.524,245.249 367.523,291.252 336.521,267.25 364.563,245.249 	"/>
</g>
<path style="fill:#FDD8A8;" d="M405.065,112.24v45.643c0,18.941-7.66,36.092-20.061,48.503
	c-12.401,12.421-29.522,20.101-48.443,20.101c-37.832,0-68.504-30.722-68.504-68.604V105.39c0-9.371,6.18-17.721,15.221-20.181
	c9.661-2.63,18.561-7.74,25.762-14.941l5.03-5.03c13.281,16.441,33.282,26.002,54.423,26.002h15.571
	C395.665,91.239,405.065,100.64,405.065,112.24z"/>
<path style="fill:#FFC477;" d="M135.732,303.749l-10.585-36.709c-3.65-12.671-15.211-20.921-27.772-20.921
	c-2.65,0-5.34,0.37-8.021,1.14c-12.891,3.71-21.191,15.601-20.911,28.402c0.05,2.45,0.42,4.93,1.13,7.39l10.827,37.554
	L135.732,303.749z"/>
<path style="fill:#CC8148;" d="M405.069,112.24l4.47-42.01c3.087-29.014-17.347-55.264-46.232-59.392l0,0
	c-16.458-2.351-33.244,0.222-48.242,7.394l0,0l0,0c-13.639-6.522-29.944-3.285-40.056,7.952l0,0
	c-9.559,10.623-14.001,24.892-12.161,39.062l5.211,40.142c0-9.373,6.178-17.725,15.222-20.187
	c9.656-2.629,18.554-7.738,25.754-14.938l5.028-5.028c13.282,16.444,33.287,26.002,54.425,26.002h15.578
	C395.667,91.239,405.069,100.642,405.069,112.24z"/>
<path style="fill:#FFC477;" d="M405.065,112.24h-36.572c-20.171,0-39.352-7.64-54.913-19.671c-7.55,5.42-16.031,9.481-25.042,11.931
	c-0.2,0.06-20.481,0.89-20.481,0.89c0-9.371,6.18-17.721,15.221-20.181c9.661-2.63,18.561-7.74,25.762-14.941l5.03-5.03
	c13.281,16.441,33.282,26.002,54.423,26.002h15.571C395.665,91.239,405.065,100.64,405.065,112.24z"/>
<polygon style="fill:#B0BEC5;" points="188.972,192.665 113.457,282.651 65.054,248.919 123.338,146.913 "/>
<path style="fill:#D8D7DA;" d="M197.476,154.703L156.005,125.8c-11.567,0.88-22.658,6.754-29.809,17.013l-2.859,4.102l65.637,45.745
	l2.859-4.102C198.982,178.299,200.655,165.86,197.476,154.703z"/>
<polygon style="fill:#B0BEC5;" points="197.476,154.703 156.005,125.8 182.159,106.24 206.773,123.394 "/>
<path style="fill:#90A4AE;" d="M182.401,200.496l-66.334,79.045l-6.95-6.95c-20.041-20.041-20.041-52.643,0-72.685
	c9.701-9.711,22.611-15.061,36.342-15.061c13.731,0,26.632,5.35,36.342,15.061L182.401,200.496z"/>
<path style="fill:#FDD8A8;" d="M198.622,245.249l-44.283,44.283l-31.082-31.082c-12.261-12.261-12.261-32.142,0-44.403
	c12.261-12.261,32.142-12.261,44.403,0l1.82,1.84L198.622,245.249z"/>
<polygon style="fill:#FFC477;" points="198.622,245.249 154.34,289.531 140.199,275.391 184.532,231.058 "/>
<path style="fill:#616161;" d="M492.809,273.55L492.809,273.55c-15.631-15.631-40.974-15.631-56.605,0l-90.495,90.495
	c-7.81,7.81-20.475,7.81-28.286,0L198.626,245.249l-56.573,56.573l147.25,147.25c23.451,23.451,61.481,23.43,84.906-0.048
	l118.63-118.9C508.441,314.487,508.427,289.169,492.809,273.55z"/>
<g>
	<path style="fill:#FFFFFF;" d="M372.2,62.223c-0.989-7.456-6.694-13.187-14.197-14.258c-7.074-1.011-14.349-0.373-21.219,1.882
		l-4.678-14.253c9.054-2.972,18.666-3.815,28.019-2.479c14.013,2.002,25.094,13.162,26.946,27.137L372.2,62.223z"/>
	<path style="fill:#FFFFFF;" d="M336.565,203.981V188.98c14.758,0,27.549-10.531,30.412-25.041l14.718,2.905
		C377.447,188.364,358.466,203.981,336.565,203.981z M382.568,150.443h-15.001v-16.201h15.001V150.443z"/>
	
		<rect x="428.515" y="329.72" transform="matrix(-0.7079 -0.7063 0.7063 -0.7079 501.2891 896.4819)" style="fill:#FFFFFF;" width="15.001" height="29.733"/>
	<path style="fill:#FFFFFF;" d="M331.756,444.144c-9.822,0-19.09-3.753-26.12-10.57l10.442-10.771
		c4.216,4.087,9.776,6.338,15.655,6.338c6.028-0.004,11.681-2.351,15.929-6.608l23.521-23.574l10.62,10.596l-23.521,23.574
		C351.202,440.227,341.781,444.138,331.756,444.144z M294.944,422.889l-27.327-27.328l10.608-10.607l27.327,27.328L294.944,422.889z
		"/>
	<path style="fill:#FFFFFF;" d="M216.615,344.558l-12.684-12.684l10.608-10.607l12.684,12.684L216.615,344.558z M193.325,321.267
		l-14.144-14.143l10.606-10.607l14.144,14.143L193.325,321.267z"/>
	<path style="fill:#FFFFFF;" d="M158.806,481.763c-12.01,0-22.588-8.098-25.725-19.69l-0.055-0.202l14.48-3.917l0.052,0.193
		c1.373,5.076,5.997,8.617,11.247,8.617c5.197,0,9.81-3.495,11.214-8.5l14.442,4.053
		C181.248,473.766,170.699,481.763,158.806,481.763z"/>
	<path style="fill:#FFFFFF;" d="M120.628,417.268l-5.194-18.686l14.452-4.018l5.194,18.686L120.628,417.268z M111.415,384.13
		L100.7,345.589l14.452-4.018l10.715,38.541L111.415,384.13z"/>
	<path style="fill:#FFFFFF;" d="M184.683,198.819l-32.816-22.876l8.579-12.307l32.816,22.876L184.683,198.819z M139.561,167.365
		l-20.512-14.299l8.579-12.307l20.512,14.299L139.561,167.365z"/>
	
		<rect x="236.013" y="449.495" transform="matrix(-0.7071 -0.7071 0.7071 -0.7071 111.8353 960.314)" style="fill:#FFFFFF;" width="37.584" height="15.001"/>
	<path style="fill:#FFFFFF;" d="M400.759,475.511l-10.62-10.596l11.148-11.174l10.62,10.596L400.759,475.511z M422.503,453.718
		l-10.62-10.596l14.127-14.159l10.62,10.596L422.503,453.718z"/>
</g>
<path d="M84.942,45.445L76.28,33.198C59.159,45.31,44.387,60.166,32.374,77.353l12.296,8.594
	C55.688,70.182,69.237,56.555,84.942,45.445z"/>
<path d="M109.676,30.986l-6.416-13.56c-4.692,2.221-9.347,4.677-13.833,7.299l7.57,12.95
	C101.11,35.273,105.376,33.021,109.676,30.986z"/>
<path d="M0,180.245h15.001c0-4.775,0.207-9.597,0.616-14.33l-14.944-1.292C0.227,169.784,0,175.039,0,180.245z"/>
<path d="M179.045,15.236l-0.086-15.001C157.906,0.356,137.288,4.1,117.677,11.36l5.207,14.067
	C140.851,18.777,159.746,15.347,179.045,15.236z"/>
<path d="M23.975,90.554C13.47,108.761,6.31,128.462,2.694,149.112l14.776,2.587c3.312-18.915,9.871-36.964,19.496-53.648
	L23.975,90.554z"/>
<path d="M58.357,92.564l12.159,8.787c2.763-3.824,5.762-7.547,8.913-11.066L68.251,80.278
	C64.754,84.186,61.425,88.319,58.357,92.564z"/>
<path d="M147.778,33.721c-15.108,3.321-29.569,8.962-42.982,16.765l7.543,12.967c12.065-7.019,25.072-12.093,38.658-15.08
	L147.778,33.721z"/>
<path d="M165.004,46.064c4.679-0.519,9.45-0.797,14.181-0.825l-0.09-15.001c-5.252,0.032-10.55,0.34-15.745,0.917L165.004,46.064z"
	/>
<path d="M100.456,71.23l-8.86-12.106c-4.228,3.095-8.342,6.448-12.225,9.968l10.073,11.116
	C92.944,77.037,96.648,74.017,100.456,71.23z"/>
<path d="M49.797,105.821c-7.722,13.459-13.275,27.956-16.503,43.088l14.671,3.13c2.902-13.608,7.896-26.646,14.843-38.752
	L49.797,105.821z"/>
<path d="M30.002,180.245h15.001c0-4.731,0.249-9.504,0.739-14.186l-14.919-1.563C30.278,169.694,30.002,174.993,30.002,180.245z"/>
<path d="M239.227,75.888c-5.493-3.129-11.274-5.838-17.181-8.055l-5.268,14.045c5.164,1.937,10.22,4.307,15.024,7.043
	L239.227,75.888z"/>
<path d="M157.103,77.754c7.473-1.669,15.178-2.516,22.902-2.516c0.001,0,0.004,0,0.006,0c7.887,0,15.751,0.882,23.376,2.621
	l3.336-14.625c-8.718-1.989-17.705-2.997-26.713-2.997c-0.002,0-0.004,0-0.007,0c-8.821,0-17.627,0.968-26.172,2.876L157.103,77.754
	z"/>
<path d="M119.06,94.786l-8.73-12.2c-12.227,8.748-22.595,19.557-30.817,32.127l12.554,8.212
	C99.269,111.915,108.351,102.448,119.06,94.786z"/>
<path d="M75.005,180.245c0-15.787,3.432-30.969,10.199-45.126l-13.534-6.47c-7.74,16.194-11.666,33.552-11.666,51.596H75.005z"/>
<path d="M130.946,87.423c4.109-2.182,8.399-4.103,12.749-5.711l-5.201-14.07c-4.977,1.84-9.883,4.038-14.581,6.532L130.946,87.423z"
	/>
<path d="M498.114,268.246c-9.729-9.728-21.097-17.321-33.779-22.564c-12.681-5.264-26.088-7.933-39.849-7.933h-52.423l0,0v-12.604
	c24.068-12.786,40.507-38.131,40.507-67.26v-45.246l4.428-41.615c3.531-33.191-19.586-62.89-52.63-67.61
	c-16.846-2.408-33.858-0.114-49.415,6.63c-15.82-5.903-34.086-1.58-45.519,11.126c-11.036,12.266-16.147,28.684-14.022,45.045
	l5.148,39.66v52.009c0,29.127,16.436,54.471,40.503,67.258v12.606l0,0h-73.999c-7.473,0-14.757,1.223-21.73,3.6l-1.905-1.905
	l-23.799-23.98l15.863-18.902l0.127-0.318l2.367-3.396c7.753-11.125,10.348-24.85,7.267-37.987l10.251-34.522L182.003,96.99
	l-28.838,21.567c-13.392,1.657-25.371,8.842-33.123,19.967l-2.857,4.099L55.139,251.152l9.997,6.966
	c-4.333,8.228-5.403,17.861-2.765,27.014l8.777,30.449l-9.154,2.788l42.127,151.537c6.667,24.647,29.154,41.859,54.686,41.859
	c25.281,0,47.709-17,54.541-41.34l19.003-67.701l51.65,51.65c10.674,10.673,24.292,17.312,39.019,19.199v37.692h15.001V473.85
	c15.684-1.439,30.238-8.241,41.5-19.529l77.058-77.233v134.178h15.001V362.057l26.571-26.637
	C516.631,316.894,516.615,286.76,498.114,268.246z M408.026,252.749v38.372l-49.503,49.503v-46.856l11.758,9.103l23.971-50.122
	L408.026,252.749L408.026,252.749z M377.624,252.749l-12.857,26.883l-16.044-12.421l18.432-14.461L377.624,252.749L377.624,252.749z
	 M328.521,304.752v-21.823l7.962-6.165l0.031,0.024l0.038-0.03l6.969,5.396v22.597h-15.001V304.752z M343.521,319.753v35.872
	l-3.116,3.116c-3.217,3.217-7.762,4.296-11.885,3.267v-42.256H343.521z M336.528,257.711l-20.464-16.102v-10.462
	c6.526,1.833,13.398,2.835,20.501,2.835c7.102,0,13.972-1.002,20.497-2.834V241.6L336.528,257.711z M270.288,64.284
	c-1.56-12.016,2.193-24.073,10.298-33.08c7.832-8.705,20.68-11.259,31.244-6.203l3.236,1.547l3.236-1.547
	c13.706-6.555,28.901-8.886,43.945-6.736c25.01,3.572,42.507,26.051,39.833,51.172l-2.043,19.206
	c-4.559-3.094-10.058-4.904-15.97-4.904h-15.578c-18.963,0-36.673-8.461-48.589-23.213l-5.241-6.488l-10.927,10.927
	c-6.202,6.202-13.956,10.7-22.421,13.005c-3.183,0.867-6.117,2.273-8.715,4.106L270.288,64.284z M275.561,157.885v-52.493
	c0-6.071,3.985-11.397,9.692-12.951c10.729-2.921,20.575-8.556,28.526-16.317c14.458,14.463,33.98,22.615,54.71,22.615h15.578
	c7.444,0,13.501,6.056,13.501,13.501v45.645c0,33.689-27.366,61.098-61.004,61.098S275.561,191.574,275.561,157.885z
	 M305.888,252.749l18.432,14.461l-16.044,12.421l-12.858-26.882H305.888z M265.017,252.749h13.774l23.971,50.122l10.758-8.329
	v54.991l-48.503-48.503V252.749z M227.064,252.749h22.951v33.281l-32.417-32.417C220.699,253.049,223.857,252.749,227.064,252.749z
	 M188.038,245.231l-33.696,33.696l-25.781-25.781c-9.318-9.318-9.318-24.479,0-33.795c9.317-9.318,24.48-9.317,33.765-0.03
	L188.038,245.231z M143.735,289.533l-3.331,3.331l-2.698-9.36L143.735,289.533z M182.314,115.49l15.727,10.961l-4.798,16.159l0,0
	l-24.428-17.024L182.314,115.49z M129.683,150.926l2.666-3.824c5.114-7.339,12.918-12.177,21.687-13.531l36.83,25.669l0,0
	c1.765,8.697-0.073,17.691-5.188,25.031l-2.677,3.841l-14.255,16.985c-15.224-11.396-36.962-10.184-50.793,3.646
	c-15.166,15.167-15.166,39.843,0,55.009l0.852,0.852l-6.687,7.971l-37.149-25.89L129.683,150.926z M77.599,266.803l37.197,25.923
	l7.409-8.833l4.275,14.831l-40.982,12.484l-8.715-30.23C75.414,276.221,75.743,271.239,77.599,266.803z M198.905,466.372
	c-5.023,17.895-21.513,30.393-40.1,30.393c-18.771,0-35.304-12.655-40.22-30.826L80.367,328.454l57.034-17.375l34.949,97.706
	l14.124-5.052l-26.111-72.997l59.822,59.823L198.905,466.372z M487.532,324.826L487.532,324.826l-118.63,118.899
	c-9.913,9.936-23.101,15.412-37.136,15.42c-0.012,0-0.021,0-0.031,0c-14.023,0-27.208-5.461-37.124-15.378L152.662,301.82
	l45.965-45.965L312.12,369.349c10.725,10.725,28.172,10.723,38.894,0l90.495-90.495l-10.608-10.607l-7.875,7.873v-23.371h1.46
	c11.777,0,23.248,2.283,34.106,6.791c10.86,4.49,20.588,10.988,28.913,19.311C500.166,291.523,500.178,312.146,487.532,324.826z"/>
<g>
</g>
<g>
</g>
<g>
</g>
<g>
</g>
<g>
</g>
<g>
</g>
<g>
</g>
<g>
</g>
<g>
</g>
<g>
</g>
<g>
</g>
<g>
</g>
<g>
</g>
<g>
</g>
<g>
</g>
</svg>
