<svg height="512pt" viewBox="-43 0 512 512.00012" width="512pt" xmlns="http://www.w3.org/2000/svg"><g fill="#f6bb92"><path d="m342.757812 315.734375h58.308594v187.730469h-58.308594zm0 0"/><path d="m213.332031 102.398438h-25.597656c-9.425781 0-17.066406-7.640626-17.066406-17.066407s7.640625-17.066406 17.066406-17.066406h25.597656zm0 0"/><path d="m298.667969 102.398438h25.597656c9.425781 0 17.066406-7.640626 17.066406-17.066407s-7.640625-17.066406-17.066406-17.066406h-25.597656zm0 0"/></g><path d="m399.265625 203.894531-49.398437-24.695312-30.507813-18.304688c-7.957031-4.773437-17.0625-7.292969-26.339844-7.292969h-74.035156c-9.28125 0-18.386719 2.519532-26.34375 7.292969l-30.507813 18.304688-110.933593 42.667969-34.753907 41.703124c-5.113281 6.132813-7.914062 13.867188-7.910156 21.851563v4.710937c0 14.140626 11.460938 25.601563 25.597656 25.601563h7.980469c11.097657.171875 22.078125-2.300781 32.03125-7.210937l87.988281-43.988282v238.929688h187.734376v-179.199219h68.265624v-89.835937c0-12.929688-7.300781-24.75-18.867187-30.535157zm0 0" fill="#b6534f"/><path d="m349.867188 503.464844h-187.734376v-238.929688l34.132813-34.136718h119.46875l34.132813 34.136718zm0 0" fill="#3b869e"/><path d="m204.800781 53.332031h102.398438v83.203125h-102.398438zm0 0" fill="#fdc9a6"/><path d="m230.398438 102.398438c-4.710938 0-8.53125-3.820313-8.53125-8.53125v-8.535157c0-4.710937 3.820312-8.53125 8.53125-8.53125 4.714843 0 8.535156 3.820313 8.535156 8.53125v8.535157c0 4.710937-3.820313 8.53125-8.535156 8.53125zm0 0" fill="#bd9070"/><path d="m281.601562 102.398438c-4.714843 0-8.535156-3.820313-8.535156-8.53125v-8.535157c0-4.710937 3.820313-8.53125 8.535156-8.53125 4.710938 0 8.53125 3.820313 8.53125 8.53125v8.535157c0 4.710937-3.820312 8.53125-8.53125 8.53125zm0 0" fill="#bd9070"/><path d="m256 187.734375c-28.277344 0-51.199219-22.925781-51.199219-51.199219v-8.535156l51.199219-8.535156 51.199219 8.535156v8.535156c0 28.273438-22.921875 51.199219-51.199219 51.199219zm0 0" fill="#744630"/><path d="m247.464844 128c-4.710938-.003906-8.53125-3.824219-8.527344-8.539062 0-1.320313.308594-2.625.902344-3.808594l8.53125-17.066406c2.105468-4.21875 7.234375-5.929688 11.453125-3.824219 4.214843 2.109375 5.929687 7.234375 3.820312 11.453125l-8.53125 17.066406c-1.449219 2.894531-4.410156 4.722656-7.648437 4.71875zm0 0" fill="#f6bb92"/><path d="m187.734375 276.386719c-4.714844.011719-8.542969-3.800781-8.554687-8.511719-.007813-3.617188 2.261718-6.847656 5.667968-8.058594l56.789063-20.378906c2.691406-.953125 5.679687-.515625 7.980469 1.175781l11.476562 8.535157c3.777344 2.820312 4.554688 8.167968 1.734375 11.945312s-8.171875 4.554688-11.949219 1.734375l-7.796875-5.8125-52.464843 18.867187c-.925782.332032-1.902344.503907-2.882813.503907zm0 0" fill="#a8a8a8"/><path d="m247.464844 281.601562h17.070312v17.066407h-17.070312zm0 0" fill="#b3e4e8"/><path d="m247.464844 315.734375h17.070312v17.066406h-17.070312zm0 0" fill="#b3e4e8"/><path d="m281.601562 418.132812-1.066406 6.402344-48.53125-.53125-1.605468-5.871094-25.597657-68.265624 37.171875 6.195312c9.289063 1.542969 18.765625 1.542969 28.054688 0l37.171875-6.195312zm0 0" fill="#fbd699"/><path d="m215.84375 455.289062 14.554688-37.15625h51.203124l14.539063 37.121094zm0 0" fill="#d9d9d9"/><path d="m215.089844 457.207031c-7.226563 16.84375.570312 36.355469 17.414062 43.582031 4.398438 1.886719 9.148438 2.800782 13.929688 2.675782h19.132812c18.320313.46875 33.554688-14.007813 34.019532-32.328125.121093-4.78125-.792969-9.535157-2.675782-13.929688l-1.9375-4.941406h-77.945312zm0 0" fill="#744630"/><path d="m146.832031 185.089844-95.632812 36.777344-34.753907 41.703124c-5.113281 6.132813-7.914062 13.867188-7.910156 21.851563v4.710937c0 14.140626 11.460938 25.601563 25.597656 25.601563h11.503907c9.273437 0 18.414062-2.160156 26.707031-6.308594l80.941406-40.472656zm0 0" fill="#f6bb92"/><path d="m315.734375 247.464844c-4.714844 0-8.535156-3.820313-8.535156-8.53125v-76.800782c0-4.710937 3.820312-8.53125 8.535156-8.53125 4.710937 0 8.53125 3.820313 8.53125 8.53125v76.800782c0 4.710937-3.820313 8.53125-8.53125 8.53125zm0 0" fill="#744630"/><path d="m196.265625 247.464844c-4.710937 0-8.53125-3.820313-8.53125-8.53125v-76.800782c0-4.710937 3.820313-8.53125 8.53125-8.53125 4.714844 0 8.535156 3.820313 8.535156 8.53125v76.800782c0 4.710937-3.820312 8.53125-8.535156 8.53125zm0 0" fill="#744630"/><path d="m307.199219 59.734375h-102.398438v-18.671875c0-17.964844 14.5625-32.527344 32.527344-32.527344h95.472656zm0 0" fill="#744630"/><path d="m349.867188 435.199219h51.199218v34.132812h-51.199218zm0 0" fill="#a8a8a8"/><path d="m102.398438 225.730469c-1.261719-.003907-2.507813-.296875-3.640626-.851563-4.261718-2.011718-6.082031-7.097656-4.070312-11.359375l18.199219-38.578125c2.011719-4.261718 7.097656-6.089844 11.359375-4.078125l30.871094 14.558594c4.265624 2.011719 6.089843 7.097656 4.078124 11.359375-2.011718 4.265625-7.101562 6.089844-11.363281 4.078125l-23.152343-10.914063-14.601563 30.898438c-1.402344 2.972656-4.390625 4.875-7.679687 4.886719zm0 0" fill="#a8a8a8"/><path d="m76.800781 187.734375-60.785156 75.945313c-4.84375 6.054687-7.484375 13.578124-7.480469 21.332031v5.121093c0 14.140626 11.460938 25.601563 25.597656 25.601563h13.652344c7.179688 0 13.59375-4.492187 16.042969-11.238281l30.039063-82.628906h34.132812v-42.667969zm0 0" fill="#fdc9a6"/><path d="m167.757812 306.535156-55.972656-28.058594c-4.214844-2.109374-5.921875-7.234374-3.8125-11.449218.074219-.144532.148438-.289063.230469-.429688l46.472656-80.996094 54.929688 27.203126-29.9375 88.824218c-1.5 4.464844-6.339844 6.867188-10.808594 5.363282-.378906-.125-.746094-.277344-1.101563-.457032zm0 0" fill="#b9b9b9"/><path d="m247.464844 281.601562h17.070312v17.066407h-17.070312zm0 0"/><path d="m247.464844 315.734375h17.070312v17.066406h-17.070312zm0 0"/><path d="m230.398438 76.800781c-4.710938 0-8.53125 3.820313-8.53125 8.53125v8.535157c0 4.710937 3.820312 8.53125 8.53125 8.53125 4.714843 0 8.535156-3.820313 8.535156-8.53125v-8.535157c0-4.710937-3.820313-8.53125-8.535156-8.53125zm0 0"/><path d="m281.601562 102.398438c4.710938 0 8.53125-3.820313 8.53125-8.53125v-8.535157c0-4.710937-3.820312-8.53125-8.53125-8.53125-4.714843 0-8.535156 3.820313-8.535156 8.53125v8.535157c0 4.710937 3.820313 8.53125 8.535156 8.53125zm0 0"/><path d="m247.464844 281.601562h17.070312v17.066407h-17.070312zm0 0"/><path d="m247.464844 315.734375h17.070312v17.066406h-17.070312zm0 0"/><path d="m403.082031 196.265625-48.820312-24.378906-39.671875-23.808594c.753906-3.800781 1.136718-7.667969 1.144531-11.542969v-25.601562h8.53125c14.140625 0 25.601563-11.460938 25.601563-25.601563 0-14.136719-11.460938-25.597656-25.601563-25.597656h-7.523437l23.738281-47.386719c2.105469-4.214844.398437-9.339844-3.820313-11.449218-1.199218-.597657-2.519531-.9062505-3.859375-.898438h-95.472656c-22.664063.0273438-41.035156 18.394531-41.0625 41.0625v18.671875h-8.53125c-14.140625 0-25.601563 11.460937-25.601563 25.597656 0 14.140625 11.460938 25.601563 25.601563 25.601563h8.53125v25.601562c.007813 3.875.390625 7.742188 1.144531 11.542969l-39.195312 23.519531-16.808594 7.355469-5.503906-2.558594c-.457032-1.414062-1.28125-2.675781-2.390625-3.664062-1.914063-1.621094-4.445313-2.316407-6.917969-1.902344l-51.203125 8.535156c-2.070313.34375-3.941406 1.441407-5.253906 3.078125l-60.75 75.941406c-6.050781 7.558594-9.3632815 16.945313-9.386719 26.628907v5.121093c0 18.851563 15.28125 34.132813 34.132812 34.132813h13.652344c1.761719-.023437 3.515625-.226563 5.234375-.613281 8.679688-1.066406 17.117188-3.597656 24.949219-7.492188l45.738281-22.859375 30.125 14.214844c-.101562.363281-.175781.734375-.222656 1.109375v194.839844c0 4.714844 3.820313 8.535156 8.53125 8.535156h238.925781c4.714844 0 8.535156-3.820312 8.535156-8.535156v-170.664063h8.53125c4.714844 0 8.535157-3.820312 8.535157-8.535156v-89.835937c.050781-16.175782-9.09375-30.976563-23.585938-38.164063zm-234.726562 99.234375-52.558594-24.796875 39.082031-66.484375 39.9375 18.84375zm-31.820313-99.96875 2.855469 1.359375-2.855469 4.863281zm72.609375 15.421875-4.34375-2.046875v-41.765625c16.808594 28.277344 53.355469 37.574219 81.632813 20.765625 8.546875-5.078125 15.6875-12.21875 20.765625-20.765625v54.726563h-93.78125l.09375-.273438c1.511719-4.144531-.378907-8.757812-4.367188-10.640625zm4.1875-108.554687v-34.132813h85.335938v49.664063l-37.746094-6.296876 2.714844-5.417968c2.105469-4.21875.394531-9.34375-3.820313-11.453125-4.21875-2.105469-9.347656-.394531-11.453125 3.824219l-7.363281 14.726562-27.667969 4.617188zm42.667969 25.722656 42.667969 7.105468v1.308594c0 23.5625-19.105469 42.664063-42.667969 42.664063s-42.667969-19.101563-42.667969-42.664063v-1.308594zm76.800781-42.789063c0 4.714844-3.820312 8.535157-8.535156 8.535157h-8.53125v-17.066407h8.53125c4.714844 0 8.535156 3.820313 8.535156 8.53125zm-119.46875-44.269531c.019531-13.246094 10.753907-23.976562 23.996094-23.996094h81.664063l-17.066407 34.132813h-88.59375zm-25.597656 52.804688c-4.714844 0-8.535156-3.820313-8.535156-8.535157 0-4.710937 3.820312-8.53125 8.535156-8.53125h8.53125v17.066407zm-21.207031 92.644531 21.207031-12.722657v27.058594l-25.882813-12.210937 3.703126-1.621094c.335937-.144531.660156-.3125.972656-.503906zm-149.460938 103.621093v-5.121093c.007813-5.808594 1.984375-11.445313 5.605469-15.988281l58.753906-73.429688 38.039063-6.316406v24.054687h-25.597656c-3.589844 0-6.792969 2.246094-8.023438 5.617188l-30.042969 82.636719c-.921875 2.507812-2.964843 4.441406-5.523437 5.222656-2.210938.253906-4.4375.382812-6.664063.390625h-9.480469c-9.425781 0-17.066406-7.640625-17.066406-17.066407zm58.027344 8.390626 24.746094-68.125h19.847656l-18.601562 31.652343c-4.242188 7.136719-2.664063 16.300781 3.71875 21.605469zm95.574219 13.796874c6.292969-.742187 11.617187-5.007812 13.710937-10.992187l9.773438-26.726563 48.953125-17.578124 7.800781 5.8125c3.859375 2.699218 9.179688 1.757812 11.882812-2.101563 2.582032-3.691406 1.851563-8.75-1.667968-11.5625l-11.476563-8.53125c-2.300781-1.691406-5.289062-2.132813-7.980469-1.179687l-39.867187 14.304687 5.539063-15.164063c.5625.171876 1.144531.285157 1.730468.332032h98.132813c0 4.710937 3.820312 8.53125 8.535156 8.53125 1.375-.027344 2.726563-.394532 3.925781-1.074219l21.671875 21.675781v226.867188h-41.8125c9.167969-11.589844 11.214844-27.285156 5.332031-40.839844l-14.113281-36.027344 24.457031-65.195312c1.65625-4.414063-.578124-9.332032-4.988281-10.988282-1.402343-.527343-2.921875-.675781-4.398437-.429687l-37.171875 6.1875c-8.355469 1.398437-16.882813 1.398437-25.242188 0l-37.167969-6.1875c-4.652343-.773437-9.046874 2.371094-9.816406 7.019531-.246094 1.476563-.097656 2.996094.429688 4.398438l24.457031 65.195312-12.230469 31.078125-1.9375 4.941407c-5.890625 13.558593-3.835937 29.261718 5.351563 40.847656h-41.8125zm221.867187 148.480469h-34.136718v-17.066406h34.136718zm-116.847656-51.199219h-39.375l-18.335938-48.890624 22.585938 3.765624c10.21875 1.714844 20.65625 1.714844 30.875 0l22.585938-3.765624zm-39.46875 17.066407h39.5625l6.679688 17.066406h-52.914063zm10.242188 68.265625c-12.695313-.046875-23.457032-9.351563-25.34375-21.90625-.265626-1.957032-.238282-3.945313.074218-5.894532.105469-.683593.410156-1.441406.574219-2.152343.289063-1.417969.683594-2.816407 1.167969-4.179688h66.191406c.46875 1.339844.847656 2.710938 1.136719 4.105469.171875.730469.496093 1.515625.597656 2.226562.3125 1.949219.339844 3.9375.074219 5.894532-1.886719 12.566406-12.664063 21.871094-25.367188 21.90625zm111.9375 0v-17.066406h34.136718v17.066406zm34.136718-68.265625h-34.136718v-93.867188h34.136718zm17.066406-110.933594h-51.203124v-51.199219c0-2.265625-.898438-4.433594-2.5-6.035156l-31.632813-31.632812v-53.085938l21.785156 13.054688 49.402344 24.695312c8.695313 4.3125 14.179687 13.191406 14.148437 22.898438zm0 0"/></svg>