<?xml version="1.0" encoding="iso-8859-1"?>
<!-- Generator: Adobe Illustrator 19.0.0, SVG Export Plug-In . SVG Version: 6.00 Build 0)  -->
<svg version="1.1" id="Capa_1" xmlns="http://www.w3.org/2000/svg" xmlns:xlink="http://www.w3.org/1999/xlink" x="0px" y="0px"
	 viewBox="0 0 511.999 511.999" style="enable-background:new 0 0 511.999 511.999;" xml:space="preserve">
<g>
	<path style="fill:#69280F;" d="M233.261,498.552c-9.004,0.001-16.303-7.299-16.304-16.303l-0.005-129.944
		c-0.001-9.004,7.299-16.303,16.303-16.304s16.303,7.299,16.304,16.303l0.005,129.944
		C249.565,491.253,242.265,498.552,233.261,498.552z"/>
	<path style="fill:#69280F;" d="M469.883,498.552c-9.004,0-16.303-7.3-16.303-16.303V352.305c0-9.004,7.3-16.303,16.303-16.303
		c9.003,0,16.303,7.3,16.303,16.303v129.944C486.187,491.254,478.887,498.552,469.883,498.552z"/>
</g>
<path style="fill:#965028;" d="M399.936,159.357h-96.733v-51.32c0-5.681,4.606-10.287,10.287-10.287h76.158
	c5.681,0,10.287,4.606,10.287,10.287L399.936,159.357L399.936,159.357z"/>
<path style="fill:#FA735F;" d="M433.421,235.35H269.718v-65.473c0-6.902,5.595-12.497,12.497-12.497h138.709
	c6.902,0,12.497,5.595,12.497,12.497V235.35z"/>
<rect x="269.719" y="185.351" style="fill:#FA2D14;" width="163.701" height="21.738"/>
<rect x="303.201" y="120.402" style="fill:#FF8291;" width="96.738" height="16.303"/>
<path style="fill:#FFDCD7;" d="M469.883,340.344H233.256v-88.697c0-9,7.296-16.296,16.296-16.296h204.035
	c9,0,16.296,7.296,16.296,16.296V340.344z"/>
<path style="fill:#823214;" d="M495.696,368.608H209.553c-9.004,0-16.303-7.3-16.303-16.303c0-9.003,7.3-16.303,16.303-16.303
	h286.143c9.004,0,16.303,7.3,16.303,16.303C511.999,361.309,504.701,368.608,495.696,368.608z"/>
<rect x="233.251" y="270.253" style="fill:#FF8291;" width="236.628" height="27.168"/>
<path style="fill:#43484C;" d="M160.479,118.993l-48.046-16.073c-14.88-4.978-30.977,3.05-35.955,17.929L30.235,259.083
	L38.3,369.982L1.477,467.613c-4.457,11.815,1.509,25.007,13.325,29.462c11.762,4.436,24.987-1.457,29.462-13.325l38.57-102.261
	c1.15-3.051,1.636-6.314,1.422-9.566l-6.364-96.898l54.273,18.156l46.242-138.233C183.386,140.068,175.359,123.97,160.479,118.993z"
	/>
<path style="fill:#373C41;" d="M126.009,477.172l-7.282-111.462l-26.258-88.013c-3.61-12.101,3.273-24.837,15.374-28.447
	c12.102-3.612,24.837,3.272,28.447,15.373l26.995,90.484c0.49,1.643,0.795,3.335,0.906,5.046l7.45,114.037
	c0.823,12.601-8.725,23.483-21.326,24.307C137.752,499.327,126.834,489.803,126.009,477.172z"/>
<path style="fill:#C8E6EB;" d="M30.235,259.082l46.242-138.233c4.978-14.88,21.075-22.907,35.955-17.929l48.046,16.073
	c14.88,4.978,22.907,21.075,17.93,35.955l-39.559,118.255l-45.65,6.943L30.235,259.082z"/>
<circle style="fill:#FFB69E;" cx="167.299" cy="55.502" r="42.055"/>
<path style="fill:#E4F2F6;" d="M267.792,207.78c-0.294,0-0.589-0.007-0.886-0.021l-93.512-4.286
	c-3.928-0.18-7.705-1.573-10.808-3.988L93.381,145.65c-8.291-6.45-9.784-18.4-3.334-26.691c6.451-8.292,18.399-9.783,26.692-3.334
	l64.435,50.126l87.474,4.01c10.494,0.481,18.611,9.377,18.13,19.872C286.31,199.827,277.896,207.78,267.792,207.78z"/>
<path style="fill:#FFB69E;" d="M268.648,169.758l-1.742,38.001c0.297,0.014,0.591,0.021,0.886,0.021
	c10.104,0,18.519-7.953,18.986-18.15C287.259,179.137,279.141,170.24,268.648,169.758z"/>
<g>
</g>
<g>
</g>
<g>
</g>
<g>
</g>
<g>
</g>
<g>
</g>
<g>
</g>
<g>
</g>
<g>
</g>
<g>
</g>
<g>
</g>
<g>
</g>
<g>
</g>
<g>
</g>
<g>
</g>
</svg>
