<?xml version="1.0" encoding="iso-8859-1"?>
<!-- Generator: Adobe Illustrator 19.0.0, SVG Export Plug-In . SVG Version: 6.00 Build 0)  -->
<svg version="1.1" id="Layer_1" xmlns="http://www.w3.org/2000/svg" xmlns:xlink="http://www.w3.org/1999/xlink" x="0px" y="0px"
	 viewBox="0 0 512.001 512.001" style="enable-background:new 0 0 512.001 512.001;" xml:space="preserve">
<circle style="fill:#FE702D;" cx="344.126" cy="407.965" r="16.005"/>
<rect x="111.644" y="7.82" style="fill:#B2E763;" width="40.655" height="24.007"/>
<path style="fill:#F92423;" d="M192.069,31.878c0,12.509-10.748,23.976-24.009,23.976H96.035c-13.26,0-24.008-11.467-24.008-23.976
	C72.027,31.878,192.069,31.878,192.069,31.878z"/>
<rect x="119.983" y="55.853" style="fill:#FE702D;" width="23.976" height="47.952"/>
<rect x="104.034" y="135.87" style="fill:#F92423;" width="56.02" height="80.027"/>
<rect x="112.04" y="215.897" style="fill:#B2E763;" width="40.019" height="112.04"/>
<g>
	<rect x="104.034" y="191.89" style="fill:#FE702D;" width="56.02" height="24.007"/>
	<rect x="104.034" y="135.87" style="fill:#FE702D;" width="56.02" height="24.007"/>
</g>
<rect x="112.04" y="103.857" style="fill:#B2E763;" width="40.019" height="32.012"/>
<path style="fill:#FE702D;" d="M72.026,360.243c17.68,0,32.012-14.594,32.012-32.315h56.02c0,17.721,14.332,32.315,32.012,32.315
	H72.026z"/>
<rect x="56.02" y="359.95" style="fill:#B2E763;" width="152.57" height="24.007"/>
<path style="fill:#F92423;" d="M208.075,384.219c17.68,0,32.012,14.201,32.012,31.881s-14.332,31.995-32.012,31.995
	c0,30.939,25.081,56.003,56.02,56.003H0c30.939,0,56.02-25.13,56.02-56.069c-17.68,0-32.012-14.226-32.012-31.905
	c0-17.68,14.332-31.905,32.012-31.905h152.055V384.219z"/>
<g>
	<polygon style="fill:#FE702D;" points="248.09,503.999 24.008,503.999 48.017,479.991 216.078,479.991 	"/>
	<path style="fill:#FE702D;" d="M144.052,448.028c-17.68,0-32.012-14.226-32.012-31.905c0-17.68,14.331-31.905,32.012-31.905H56.02
		c-17.68,0-32.012,14.2-32.012,31.881c0,17.68,14.331,31.995,32.012,31.995c0,30.939-25.081,56.003-56.02,56.003h88.032
		C118.971,504.098,144.052,478.968,144.052,448.028z"/>
</g>
<path d="M263.84,511.395H0.105v-15.636c23.976,0,44.251-17.858,47.644-41.036c-17.98-3.79-31.533-19.599-31.533-38.469
	c0-21.688,17.841-39.332,39.803-39.332h152.055c21.962,0,39.83,17.692,39.83,39.438c0,18.912-13.653,34.756-31.63,38.556
	c3.406,23.07,23.59,40.842,47.566,40.842V511.395z M41.872,495.759h180.295c-13.42-11.637-21.915-28.748-21.915-47.794v-7.454h7.823
	c13.566,0,24.194-10.631,24.194-23.967c0-13.347-10.627-23.984-24.194-23.984H56.02c-13.566,0-24.193,10.167-24.193,23.455
	s10.627,23.455,24.193,23.455h7.673v8.301C63.693,466.899,55.324,484.085,41.872,495.759z"/>
<rect x="80.371" y="440.509" width="104.243" height="15.636"/>
<rect x="111.644" y="0.606" width="40.655" height="15.636"/>
<g>
	<rect x="135.62" y="408.194" style="fill:#FFFFFF;" width="16.679" height="15.636"/>
	<rect x="160.638" y="408.194" style="fill:#FFFFFF;" width="14.594" height="15.636"/>
	<rect x="80.371" y="408.194" style="fill:#FFFFFF;" width="16.679" height="15.636"/>
	<rect x="104.347" y="408.194" style="fill:#FFFFFF;" width="15.636" height="15.636"/>
</g>
<rect x="72.032" y="472.824" width="119.879" height="15.636"/>
<path d="M208.579,351.904l-16.667,0.025v-0.025c-10.598,0-19.319-6.375-22.619-15.636h15.322v-15.636h-25.018v-96.917h8.279V179.12
	l29.722-29.722l-11.056-11.056l-18.665,18.665V128.05h-8.279v-15.903h8.339V96.51h-16.679V64.195h16.803
	c17.846,0,32.191-13.965,32.191-31.794v-7.818H63.694v7.818c0,17.829,14.494,31.794,32.34,31.794h15.611V96.51H97.052v15.636h7.297
	v15.903H96.22v28.958l-18.665-18.665L66.5,149.399l29.722,29.722v44.594h8.129v96.917H80.374v15.636h14.419
	c-3.223,9.032-11.583,15.43-21.73,15.838L56.01,352.13l0.023,15.636l152.571-0.226L208.579,351.904z M152.239,143.685v64.392
	h-40.384v-64.392H152.239z M143.96,112.145v15.903h-23.976v-15.903H143.96z M127.282,96.509V64.194h8.339v32.315H127.282z
	 M96.035,48.557c-6.218,0-11.514-3.33-14.233-8.339h100.493c-2.72,5.01-8.015,8.339-14.233,8.339H96.035z M119.985,223.714h23.976
	v96.917h-23.976V223.714z M103.644,352.059c3.517-4.592,6.062-9.959,7.319-15.792h42.165c1.248,5.814,3.773,11.15,7.268,15.708
	L103.644,352.059z"/>
<path style="fill:#A645CB;" d="M304.11,415.784h-8.003c-17.549,0-31.827-14.277-31.827-31.826c0-17.549,14.277-31.827,31.827-31.827
	h80.029c8.927,0,16.191-7.263,16.191-16.191c0-8.927-7.263-16.19-16.191-16.19H248.09c-17.549,0-31.826-14.277-31.826-31.827
	c0-17.549,14.277-31.826,31.826-31.826h96.035c8.927,0,16.191-7.263,16.191-16.191c0-8.927-7.263-16.19-16.191-16.19H304.11
	c-17.55,0-31.827-14.277-31.827-31.826s14.277-31.827,31.827-31.827h120.043c8.927,0,16.191-7.263,16.191-16.19
	c0-8.927-7.263-16.191-16.191-16.191h-185.44c-12.508,0-24.268,4.871-33.113,13.716l-11.057-11.056
	c11.798-11.798,27.485-18.296,44.17-18.296h185.44c17.549,0,31.827,14.277,31.827,31.827c0,17.549-14.277,31.826-31.827,31.826
	H304.11c-8.928,0-16.191,7.263-16.191,16.191c0,8.927,7.263,16.19,16.191,16.19h40.015c17.549,0,31.827,14.277,31.827,31.826
	s-14.277,31.827-31.827,31.827H248.09c-8.927,0-16.19,7.263-16.19,16.19s7.263,16.191,16.19,16.191h128.047
	c17.549,0,31.827,14.277,31.827,31.826c0,17.549-14.277,31.827-31.827,31.827h-80.029c-8.927,0-16.191,7.263-16.191,16.191
	c0,8.927,7.263,16.19,16.191,16.19h8.003L304.11,415.784L304.11,415.784z"/>
<rect x="424.372" y="400.897" style="fill:#F92423;" width="15.636" height="15.636"/>
<path style="fill:#DDDDDD;" d="M484.176,415.784h-36.013v-15.636h36.013c6.721,0,12.189-5.469,12.189-12.189
	s-5.469-12.189-12.189-12.189h-24.009c-15.342,0-27.826-12.482-27.826-27.826c0-15.342,12.483-27.826,27.826-27.826h8.003
	c6.721,0,12.189-5.469,12.189-12.189c0-6.722-5.469-12.189-12.189-12.189H444.16c-15.342,0-27.826-12.483-27.826-27.826
	c0-15.343,12.483-27.826,27.826-27.826c11.134,0,20.192-9.058,20.192-20.192v-4.001h15.636v4.001
	c0,19.756-16.072,35.828-35.828,35.828c-6.721,0-12.189,5.469-12.189,12.189s5.469,12.189,12.189,12.189h24.009
	c15.343,0,27.826,12.483,27.826,27.826c0,15.342-12.482,27.826-27.826,27.826h-8.003c-6.721,0-12.189,5.469-12.189,12.189
	s5.469,12.189,12.189,12.189h24.009c15.343,0,27.826,12.483,27.826,27.826C512,403.301,499.518,415.784,484.176,415.784z"/>
<rect x="463.985" y="168.436" style="fill:#AAAAAA;" width="15.636" height="39.612"/>
<g>
	<path style="fill:#C4C4C4;" d="M472.17,271.732v-15.636c8.927,0,16.191-7.263,16.191-16.191v-64.023h15.636v64.023
		C503.997,257.454,489.72,271.732,472.17,271.732z"/>
	<rect x="423.33" y="208.048" style="fill:#C4C4C4;" width="15.636" height="15.636"/>
</g>
<rect x="487.961" y="337.309" style="fill:#AAAAAA;" width="15.636" height="15.636"/>
<rect x="487.961" y="88.169" style="fill:#DDDDDD;" width="15.636" height="70.885"/>
<path d="M416.034,400.898h-49.157c-3.018-9.697-12.077-16.757-22.754-16.757c-10.677,0-19.736,7.06-22.754,16.757h-9.579v15.636
	h10.108c3.449,8.914,12.108,15.255,22.224,15.255c10.117,0,18.775-6.341,22.224-15.255h49.686v-15.636H416.034z M344.124,416.153
	c-4.515,0-8.188-3.672-8.188-8.188c0-4.515,3.672-8.187,8.188-8.187c4.515,0,8.187,3.672,8.187,8.187
	C352.313,412.48,348.639,416.153,344.124,416.153z"/>
<rect x="119.983" y="184.072" width="23.976" height="15.636"/>
<rect x="119.983" y="152.799" width="23.976" height="15.636"/>
<g>
</g>
<g>
</g>
<g>
</g>
<g>
</g>
<g>
</g>
<g>
</g>
<g>
</g>
<g>
</g>
<g>
</g>
<g>
</g>
<g>
</g>
<g>
</g>
<g>
</g>
<g>
</g>
<g>
</g>
</svg>
