<svg height="512pt" viewBox="-99 0 512 512" width="512pt" xmlns="http://www.w3.org/2000/svg"><path d="m15 67.5v37.5c0 12.425781 10.074219 22.5 22.5 22.5s22.5-10.074219 22.5-22.5v-37.5zm0 0" fill="#ff4128"/><path d="m292.5 127.417969v34.996093h-45v-34.996093l22.5-15.003907zm0 0" fill="#869e47"/><path d="m292.5 92.414062v35.003907h-45v-35.003907l22.5-39.832031zm0 0" fill="#fff"/><path d="m247.5 92.414062v-27.5c0-12.425781 10.074219-22.5 22.5-22.5s22.5 10.074219 22.5 22.5v27.5zm0 0" fill="#9db55f"/><path d="m164.75 7.5c-13.871094 0-25.972656 7.535156-32.460938 18.730469-1.574218-.5625-3.265624-.882813-5.039062-.882813-8.285156 0-15 6.714844-15 15v57.152344h90v-52.5c0-20.710938-16.789062-37.5-37.5-37.5zm0 0" fill="#ffcb63"/><path d="m157.25 52.5v90c24.851562 0 45-20.148438 45-45s-20.148438-45-45-45zm0 0" fill="#ff8d7e"/><path d="m172.25 97.5c0-24.851562-6.714844-45-15-45-24.851562 0-45 20.148438-45 45s20.148438 45 45 45c8.285156 0 15-20.148438 15-45zm0 0" fill="#ffb4a9"/><path d="m202.25 292.492188-60-30 30 120.007812h30zm0 0" fill="#353535"/><path d="m112.25 292.492188v90.007812h60v-120.007812zm0 0" fill="#4f4f4f"/><path d="m197.25 172.5h-17.5l-22.5 39.996094-20 40 20 40.003906h45v-45c8.027344-6.03125 13.609375-15.136719 15-25.570312v-29.429688c0-11.046875-8.953125-20-20-20zm0 0" fill="#999"/><path d="m134.75 172.5h-17.5c-11.046875 0-20 8.953125-20 20v29.429688c1.390625 10.429687 6.972656 19.539062 15 25.570312v45h45v-80.003906zm0 0" fill="#b3b3b3"/><path d="m157.25 172.5-15 40 15 40c17.929688-15.976562 30-45.808594 30-80zm0 0" fill="#dbf4ff"/><path d="m127.25 172.5c0 34.191406 12.070312 64.023438 30 80v-80zm0 0" fill="#fff"/><path d="m300 156.289062v-91.34375c0-13.964843-9.574219-25.738281-22.5-29.078124v-28.285157c0-4.140625-3.359375-7.4999998-7.5-7.4999998-4.144531 0-7.5 3.3593748-7.5 7.4999998v28.285157c-12.925781 3.339843-22.5 15.113281-22.5 29.078124v97.46875c0 4.144532 3.355469 7.5 7.5 7.5l43.941406.003907c.347656.046875.699219.082031 1.058594.082031 4.136719 0 7.5 3.363281 7.5 7.5s-3.363281 7.5-7.5 7.5h-68.800781c-3.273438-11.527344-13.886719-20-26.449219-20h-80c-12.5625 0-23.179688 8.472656-26.453125 20h-68.296875c-4.136719 0-7.5-3.363281-7.5-7.5s3.363281-7.5 7.5-7.5h30c4.140625 0 7.5-3.359375 7.5-7.5 0-4.144531-3.359375-7.5-7.5-7.5h-7.5v-20.949219c12.925781-3.339843 22.5-15.097656 22.5-29.050781v-37.5c0-4.144531-3.359375-7.5-7.5-7.5h-45c-4.140625 0-7.5 3.355469-7.5 7.5v37.5c0 13.953125 9.574219 25.710938 22.5 29.050781v20.949219h-7.5c-12.40625 0-22.5 10.09375-22.5 22.5s10.09375 22.5 22.5 22.5h67.25v21.929688c0 .332031.023438.660156.066406.992187 1.4375 10.800781 6.816406 20.855469 14.933594 28.117187v131.460938c0 4.140625 3.359375 7.5 7.5 7.5h7.5v99.09375l-24.871094 8.289062c-3.929687 1.308594-6.054687 5.558594-4.746094 9.488282 1.050782 3.140625 3.976563 5.128906 7.113282 5.128906.789062 0 1.585937-.125 2.375-.386719l30-10c3.0625-1.019531 5.128906-3.886719 5.128906-7.113281v-104.5h45v104.5c0 3.226562 2.0625 6.09375 5.125 7.113281l30 10c.789062.261719 1.585938.386719 2.375.386719 3.140625 0 6.066406-1.988281 7.113281-5.128906 1.308594-3.929688-.8125-8.179688-4.742187-9.488282l-24.875-8.289062v-99.09375h7.5c4.144531 0 7.5-3.359375 7.5-7.5v-131.460938c8.117187-7.261718 13.496094-17.316406 14.933594-28.117187.046874-.332031.066406-.660156.066406-.992187v-21.929688h67.75c12.40625 0 22.5-10.09375 22.5-22.5.003906-9.777344-6.265625-18.113281-14.996094-21.210938zm-15-36.371093h-30v-20h30zm-16.207031-69.941407c.394531.0625.796875.105469 1.207031.105469s.8125-.042969 1.207031-.105469c7.707031.621094 13.792969 7.089844 13.792969 14.96875v19.96875h-30v-19.96875c0-7.878906 6.085938-14.347656 13.792969-14.96875zm-13.792969 104.9375v-20h30v20zm-232.5-49.914062v-30h30v30c0 8.269531-6.726562 15-15 15-8.269531 0-15-6.730469-15-15zm127.246094 126.542969c-8.40625-13.910157-13.695313-32.070313-14.785156-51.542969h14.785156zm15-51.542969h14.792968c-1.089843 19.476562-6.382812 37.640625-14.792968 51.550781zm-59.996094 41.402344v-27.011719c.160156-.605469.25-1.238281.25-1.890625 0-.515625-.050781-1.015625-.152344-1.5.746094-6.1875 6.019532-11 12.402344-11h2.691406c1.511719 30.96875 12.367188 58.628906 29.804688 75.734375v29.265625h-29.996094v-37.5c0-2.359375-1.109375-4.582031-2.996094-5.996094-6.460937-4.855468-10.816406-12.160156-12.003906-20.101562zm15 153.597656v-75h75v75zm90-153.597656c-1.1875 7.941406-5.542969 15.246094-12.003906 20.101562-1.886719 1.414063-2.996094 3.636719-2.996094 5.996094v37.5h-30.003906v-29.261719c17.445312-17.101562 28.300781-44.765625 29.8125-75.738281h2.691406c6.894531 0 12.5 5.605469 12.5 12.5zm0 0"/><path d="m157.25 150c28.949219 0 52.5-23.550781 52.5-52.5v-52.5c0-24.8125-20.1875-45-45-45-14.152344 0-27.46875 6.746094-35.914062 17.902344-.527344-.039063-1.054688-.058594-1.585938-.058594-12.40625 0-22.5 10.09375-22.5 22.5v57.15625c0 28.949219 23.550781 52.5 52.5 52.5zm-37.5-109.652344c0-4.136718 3.363281-7.5 7.5-7.5.835938 0 1.679688.148438 2.515625.445313 3.410156 1.222656 7.199219-.171875 9.015625-3.300781 5.355469-9.246094 15.308594-14.992188 25.96875-14.992188 16.542969 0 30 13.457031 30 30v15.808594c-9.535156-9.746094-22.820312-15.808594-37.5-15.808594s-27.960938 6.0625-37.5 15.808594zm37.5 19.652344c20.679688 0 37.5 16.820312 37.5 37.5 0 20.675781-16.820312 37.5-37.5 37.5-20.675781 0-37.5-16.824219-37.5-37.5 0-20.679688 16.824219-37.5 37.5-37.5zm0 0"/></svg>